<svg xmlns="http://www.w3.org/2000/svg" xmlns:xlink="http://www.w3.org/1999/xlink" contentStyleType="text/css" data-diagram-type="CLASS" height="2019px" preserveAspectRatio="none" style="width:579px;height:2019px;background:#FFFFFF;" version="1.1" viewBox="0 0 579 2019" width="579px" zoomAndPan="magnify"><defs/><g><!--cluster repository--><g class="cluster" data-entity="repository" data-source-line="1" data-uid="ent0002" id="cluster_repository"><path d="M32.5,1235.25 L115.0117,1235.25 A3.75,3.75 0 0 1 117.5117,1237.75 L124.5117,1257.5469 L545.5,1257.5469 A2.5,2.5 0 0 1 548,1260.0469 L548,2010.14 A2.5,2.5 0 0 1 545.5,2012.64 L32.5,2012.64 A2.5,2.5 0 0 1 30,2010.14 L30,1237.75 A2.5,2.5 0 0 1 32.5,1235.25" fill="none" style="stroke:#000000;stroke-width:1.5;"/><line style="stroke:#000000;stroke-width:1.5;" x1="30" x2="124.5117" y1="1257.5469" y2="1257.5469"/><text fill="#000000" font-family="sans-serif" font-size="14" font-weight="bold" lengthAdjust="spacing" textLength="81.5117" x="34" y="1250.2451">repository</text></g><!--cluster service--><g class="cluster" data-entity="service" data-source-line="44" data-uid="ent0005" id="cluster_service"><path d="M8.5,6 L65.9512,6 A3.75,3.75 0 0 1 68.4512,8.5 L75.4512,28.2969 L569.5,28.2969 A2.5,2.5 0 0 1 572,30.7969 L572,1208.75 A2.5,2.5 0 0 1 569.5,1211.25 L8.5,1211.25 A2.5,2.5 0 0 1 6,1208.75 L6,8.5 A2.5,2.5 0 0 1 8.5,6" fill="none" style="stroke:#000000;stroke-width:1.5;"/><line style="stroke:#000000;stroke-width:1.5;" x1="6" x2="75.4512" y1="28.2969" y2="28.2969"/><text fill="#000000" font-family="sans-serif" font-size="14" font-weight="bold" lengthAdjust="spacing" textLength="56.4512" x="10" y="20.9951">service</text></g><!--class Repository--><g class="entity" data-entity="Repository" data-source-line="2" data-uid="ent0003" id="entity_Repository"><rect fill="#F1F1F1" height="341.3438" rx="2.5" ry="2.5" style="stroke:#181818;stroke-width:0.5;" width="486.7832" x="45.61" y="1270.25"/><ellipse cx="247.2155" cy="1286.25" fill="#B4A7E5" rx="11" ry="11" style="stroke:#181818;stroke-width:1;"/><path d="M243.1373,1282.0156 L243.1373,1279.8594 L250.528,1279.8594 L250.528,1282.0156 L248.0592,1282.0156 L248.0592,1290.0938 L250.528,1290.0938 L250.528,1292.25 L243.1373,1292.25 L243.1373,1290.0938 L245.6061,1290.0938 L245.6061,1282.0156 L243.1373,1282.0156 Z " fill="#000000"/><text fill="#000000" font-family="sans-serif" font-size="14" font-style="italic" lengthAdjust="spacing" textLength="75.0723" x="267.7155" y="1291.0967">Repository</text><line style="stroke:#181818;stroke-width:0.5;" x1="46.61" x2="531.3932" y1="1302.25" y2="1302.25"/><line style="stroke:#181818;stroke-width:0.5;" x1="46.61" x2="531.3932" y1="1310.25" y2="1310.25"/><ellipse cx="56.61" cy="1323.8984" fill="#84BE84" rx="3" ry="3" style="stroke:#038048;stroke-width:1;"/><text fill="#000000" font-family="sans-serif" font-size="14" lengthAdjust="spacing" textLength="345.3789" x="65.61" y="1327.2451">SaveAnalyzerExecution(ctx, execution): int, error</text><ellipse cx="56.61" cy="1340.1953" fill="#84BE84" rx="3" ry="3" style="stroke:#038048;stroke-width:1;"/><text fill="#000000" font-family="sans-serif" font-size="14" lengthAdjust="spacing" textLength="454.0293" x="65.61" y="1343.542">ListAnalyzerExecutions(ctx): []AnalyzerExecutionBriefView, error</text><ellipse cx="56.61" cy="1356.4922" fill="#84BE84" rx="3" ry="3" style="stroke:#038048;stroke-width:1;"/><text fill="#000000" font-family="sans-serif" font-size="14" lengthAdjust="spacing" textLength="460.7832" x="65.61" y="1359.8389">GetAnalyzerExecution(ctx, executionId): AnalyzerExecution, error</text><ellipse cx="56.61" cy="1372.7891" fill="#84BE84" rx="3" ry="3" style="stroke:#038048;stroke-width:1;"/><text fill="#000000" font-family="sans-serif" font-size="14" lengthAdjust="spacing" textLength="173.1953" x="65.61" y="1376.1357">StoreRun(ctx, run): error</text><ellipse cx="56.61" cy="1389.0859" fill="#84BE84" rx="3" ry="3" style="stroke:#038048;stroke-width:1;"/><text fill="#000000" font-family="sans-serif" font-size="14" lengthAdjust="spacing" textLength="239.4766" x="65.61" y="1392.4326">GetRun(ctx, id): *FuzzerRun, error</text><ellipse cx="56.61" cy="1405.3828" fill="#84BE84" rx="3" ry="3" style="stroke:#038048;stroke-width:1;"/><text fill="#000000" font-family="sans-serif" font-size="14" lengthAdjust="spacing" textLength="270.4844" x="65.61" y="1408.7295">GetRuns(ctx, filter): []FuzzerRun, error</text><ellipse cx="56.61" cy="1421.6797" fill="#84BE84" rx="3" ry="3" style="stroke:#038048;stroke-width:1;"/><text fill="#000000" font-family="sans-serif" font-size="14" lengthAdjust="spacing" textLength="271.585" x="65.61" y="1425.0264">GetOrStoreTag(ctx, name): *Tag, error</text><ellipse cx="56.61" cy="1437.9766" fill="#84BE84" rx="3" ry="3" style="stroke:#038048;stroke-width:1;"/><text fill="#000000" font-family="sans-serif" font-size="14" lengthAdjust="spacing" textLength="294.4375" x="65.61" y="1441.3232">AddTagToRun(ctx, runID, tagName): error</text><ellipse cx="56.61" cy="1454.2734" fill="#84BE84" rx="3" ry="3" style="stroke:#038048;stroke-width:1;"/><text fill="#000000" font-family="sans-serif" font-size="14" lengthAdjust="spacing" textLength="269.0693" x="65.61" y="1457.6201">GetRunTags(ctx, runID): []string, error</text><ellipse cx="56.61" cy="1470.5703" fill="#84BE84" rx="3" ry="3" style="stroke:#038048;stroke-width:1;"/><text fill="#000000" font-family="sans-serif" font-size="14" lengthAdjust="spacing" textLength="346.083" x="65.61" y="1473.917">GetRunsByTag(ctx, tagName): []FuzzerRun, error</text><ellipse cx="56.61" cy="1486.8672" fill="#84BE84" rx="3" ry="3" style="stroke:#038048;stroke-width:1;"/><text fill="#000000" font-family="sans-serif" font-size="14" lengthAdjust="spacing" textLength="200.6963" x="65.61" y="1490.2139">StoreCrash(ctx, crash): error</text><ellipse cx="56.61" cy="1503.1641" fill="#84BE84" rx="3" ry="3" style="stroke:#038048;stroke-width:1;"/><text fill="#000000" font-family="sans-serif" font-size="14" lengthAdjust="spacing" textLength="247.5771" x="65.61" y="1506.5107">StoreTestCase(ctx, testCase): error</text><ellipse cx="56.61" cy="1519.4609" fill="#84BE84" rx="3" ry="3" style="stroke:#038048;stroke-width:1;"/><text fill="#000000" font-family="sans-serif" font-size="14" lengthAdjust="spacing" textLength="271.2842" x="65.61" y="1522.8076">StoreFsSummary(ctx, summary): error</text><ellipse cx="56.61" cy="1535.7578" fill="#84BE84" rx="3" ry="3" style="stroke:#038048;stroke-width:1;"/><text fill="#000000" font-family="sans-serif" font-size="14" lengthAdjust="spacing" textLength="253.9824" x="65.61" y="1539.1045">StoreTestArtifact(ctx, artifact): error</text><ellipse cx="56.61" cy="1552.0547" fill="#84BE84" rx="3" ry="3" style="stroke:#038048;stroke-width:1;"/><text fill="#000000" font-family="sans-serif" font-size="14" lengthAdjust="spacing" textLength="239.3809" x="65.61" y="1555.4014">StoreFsArtifact(ctx, artifact): error</text><ellipse cx="56.61" cy="1568.3516" fill="#84BE84" rx="3" ry="3" style="stroke:#038048;stroke-width:1;"/><text fill="#000000" font-family="sans-serif" font-size="14" lengthAdjust="spacing" textLength="348.2842" x="65.61" y="1571.6982">GetRunWithDetails(ctx, runID): *RunDetails, error</text><ellipse cx="56.61" cy="1584.6484" fill="#84BE84" rx="3" ry="3" style="stroke:#038048;stroke-width:1;"/><text fill="#000000" font-family="sans-serif" font-size="14" lengthAdjust="spacing" textLength="247.208" x="65.61" y="1587.9951">GetRunStats(ctx): []RunStats, error</text><ellipse cx="56.61" cy="1600.9453" fill="#84BE84" rx="3" ry="3" style="stroke:#038048;stroke-width:1;"/><text fill="#000000" font-family="sans-serif" font-size="14" lengthAdjust="spacing" textLength="375.0264" x="65.61" y="1604.292">GetRunsFilteredByDate(ctx, filter): []FuzzerRun, error</text></g><!--class FuzzerRepository--><g class="entity" data-entity="FuzzerRepository" data-source-line="23" data-uid="ent0004" id="entity_FuzzerRepository"><rect fill="#F1F1F1" height="325.0469" rx="2.5" ry="2.5" style="stroke:#181818;stroke-width:0.5;" width="401.0264" x="88.49" y="1671.59"/><ellipse cx="224.221" cy="1687.59" fill="#ADD1B2" rx="11" ry="11" style="stroke:#181818;stroke-width:1;"/><path d="M227.1897,1693.2306 Q226.6116,1693.5275 225.971,1693.6681 Q225.3303,1693.8244 224.6272,1693.8244 Q222.1272,1693.8244 220.7991,1692.1838 Q219.4866,1690.5275 219.4866,1687.4025 Q219.4866,1684.2775 220.7991,1682.6213 Q222.1272,1680.965 224.6272,1680.965 Q225.3303,1680.965 225.971,1681.1213 Q226.6272,1681.2775 227.1897,1681.5744 L227.1897,1684.2931 Q226.5647,1683.715 225.971,1683.4494 Q225.3772,1683.1681 224.7522,1683.1681 Q223.4085,1683.1681 222.721,1684.2463 Q222.0335,1685.3088 222.0335,1687.4025 Q222.0335,1689.4963 222.721,1690.5744 Q223.4085,1691.6369 224.7522,1691.6369 Q225.3772,1691.6369 225.971,1691.3713 Q226.5647,1691.09 227.1897,1690.5119 L227.1897,1693.2306 Z " fill="#000000"/><text fill="#000000" font-family="sans-serif" font-size="14" lengthAdjust="spacing" textLength="121.0645" x="244.721" y="1692.4367">FuzzerRepository</text><line style="stroke:#181818;stroke-width:0.5;" x1="89.49" x2="488.5164" y1="1703.59" y2="1703.59"/><rect fill="none" height="6" style="stroke:#C82930;stroke-width:1;" width="6" x="96.49" y="1714.2384"/><text fill="#000000" font-family="sans-serif" font-size="14" lengthAdjust="spacing" textLength="100.5361" x="108.49" y="1720.5851">db: *pgx.Conn</text><line style="stroke:#181818;stroke-width:0.5;" x1="89.49" x2="488.5164" y1="1727.8869" y2="1727.8869"/><ellipse cx="99.49" cy="1741.5353" fill="#84BE84" rx="3" ry="3" style="stroke:#038048;stroke-width:1;"/><text fill="#000000" font-family="sans-serif" font-size="14" lengthAdjust="spacing" textLength="317.5293" x="108.49" y="1744.882">NewFuzzerRepository(db): *FuzzerRepository</text><ellipse cx="99.49" cy="1757.8322" fill="#84BE84" rx="3" ry="3" style="stroke:#038048;stroke-width:1;"/><text fill="#000000" font-family="sans-serif" font-size="14" lengthAdjust="spacing" textLength="173.1953" x="108.49" y="1761.1789">StoreRun(ctx, run): error</text><ellipse cx="99.49" cy="1774.1291" fill="#84BE84" rx="3" ry="3" style="stroke:#038048;stroke-width:1;"/><text fill="#000000" font-family="sans-serif" font-size="14" lengthAdjust="spacing" textLength="239.4766" x="108.49" y="1777.4757">GetRun(ctx, id): *FuzzerRun, error</text><ellipse cx="99.49" cy="1790.4259" fill="#84BE84" rx="3" ry="3" style="stroke:#038048;stroke-width:1;"/><text fill="#000000" font-family="sans-serif" font-size="14" lengthAdjust="spacing" textLength="317.4336" x="108.49" y="1793.7726">GetRuns(ctx, limit, offset): []FuzzerRun, error</text><ellipse cx="99.49" cy="1806.7228" fill="#84BE84" rx="3" ry="3" style="stroke:#038048;stroke-width:1;"/><text fill="#000000" font-family="sans-serif" font-size="14" lengthAdjust="spacing" textLength="271.585" x="108.49" y="1810.0695">GetOrStoreTag(ctx, name): *Tag, error</text><ellipse cx="99.49" cy="1823.0197" fill="#84BE84" rx="3" ry="3" style="stroke:#038048;stroke-width:1;"/><text fill="#000000" font-family="sans-serif" font-size="14" lengthAdjust="spacing" textLength="294.4375" x="108.49" y="1826.3664">AddTagToRun(ctx, runID, tagName): error</text><ellipse cx="99.49" cy="1839.3166" fill="#84BE84" rx="3" ry="3" style="stroke:#038048;stroke-width:1;"/><text fill="#000000" font-family="sans-serif" font-size="14" lengthAdjust="spacing" textLength="269.0693" x="108.49" y="1842.6632">GetRunTags(ctx, runID): []string, error</text><ellipse cx="99.49" cy="1855.6134" fill="#84BE84" rx="3" ry="3" style="stroke:#038048;stroke-width:1;"/><text fill="#000000" font-family="sans-serif" font-size="14" lengthAdjust="spacing" textLength="346.083" x="108.49" y="1858.9601">GetRunsByTag(ctx, tagName): []FuzzerRun, error</text><ellipse cx="99.49" cy="1871.9103" fill="#84BE84" rx="3" ry="3" style="stroke:#038048;stroke-width:1;"/><text fill="#000000" font-family="sans-serif" font-size="14" lengthAdjust="spacing" textLength="200.6963" x="108.49" y="1875.257">StoreCrash(ctx, crash): error</text><ellipse cx="99.49" cy="1888.2072" fill="#84BE84" rx="3" ry="3" style="stroke:#038048;stroke-width:1;"/><text fill="#000000" font-family="sans-serif" font-size="14" lengthAdjust="spacing" textLength="247.5771" x="108.49" y="1891.5539">StoreTestCase(ctx, testCase): error</text><ellipse cx="99.49" cy="1904.5041" fill="#84BE84" rx="3" ry="3" style="stroke:#038048;stroke-width:1;"/><text fill="#000000" font-family="sans-serif" font-size="14" lengthAdjust="spacing" textLength="271.2842" x="108.49" y="1907.8507">StoreFsSummary(ctx, summary): error</text><ellipse cx="99.49" cy="1920.8009" fill="#84BE84" rx="3" ry="3" style="stroke:#038048;stroke-width:1;"/><text fill="#000000" font-family="sans-serif" font-size="14" lengthAdjust="spacing" textLength="253.9824" x="108.49" y="1924.1476">StoreTestArtifact(ctx, artifact): error</text><ellipse cx="99.49" cy="1937.0978" fill="#84BE84" rx="3" ry="3" style="stroke:#038048;stroke-width:1;"/><text fill="#000000" font-family="sans-serif" font-size="14" lengthAdjust="spacing" textLength="239.3809" x="108.49" y="1940.4445">StoreFsArtifact(ctx, artifact): error</text><ellipse cx="99.49" cy="1953.3947" fill="#84BE84" rx="3" ry="3" style="stroke:#038048;stroke-width:1;"/><text fill="#000000" font-family="sans-serif" font-size="14" lengthAdjust="spacing" textLength="348.2842" x="108.49" y="1956.7414">GetRunWithDetails(ctx, runID): *RunDetails, error</text><ellipse cx="99.49" cy="1969.6916" fill="#84BE84" rx="3" ry="3" style="stroke:#038048;stroke-width:1;"/><text fill="#000000" font-family="sans-serif" font-size="14" lengthAdjust="spacing" textLength="247.208" x="108.49" y="1973.0382">GetRunStats(ctx): []RunStats, error</text><ellipse cx="99.49" cy="1985.9884" fill="#84BE84" rx="3" ry="3" style="stroke:#038048;stroke-width:1;"/><text fill="#000000" font-family="sans-serif" font-size="14" lengthAdjust="spacing" textLength="375.0264" x="108.49" y="1989.3351">GetRunsFilteredByDate(ctx, filter): []FuzzerRun, error</text></g><!--class CrudService--><g class="entity" data-entity="CrudService" data-source-line="45" data-uid="ent0006" id="entity_CrudService"><rect fill="#F1F1F1" height="259.8594" rx="2.5" ry="2.5" style="stroke:#181818;stroke-width:0.5;" width="419.1074" x="79.45" y="582.94"/><ellipse cx="242.2376" cy="598.94" fill="#B4A7E5" rx="11" ry="11" style="stroke:#181818;stroke-width:1;"/><path d="M238.1595,594.7056 L238.1595,592.5494 L245.5501,592.5494 L245.5501,594.7056 L243.0813,594.7056 L243.0813,602.7838 L245.5501,602.7838 L245.5501,604.94 L238.1595,604.94 L238.1595,602.7838 L240.6282,602.7838 L240.6282,594.7056 L238.1595,594.7056 Z " fill="#000000"/><text fill="#000000" font-family="sans-serif" font-size="14" font-style="italic" lengthAdjust="spacing" textLength="85.0322" x="262.7376" y="603.7867">CrudService</text><line style="stroke:#181818;stroke-width:0.5;" x1="80.45" x2="497.5574" y1="614.94" y2="614.94"/><line style="stroke:#181818;stroke-width:0.5;" x1="80.45" x2="497.5574" y1="622.94" y2="622.94"/><ellipse cx="90.45" cy="636.5884" fill="#84BE84" rx="3" ry="3" style="stroke:#038048;stroke-width:1;"/><text fill="#000000" font-family="sans-serif" font-size="14" lengthAdjust="spacing" textLength="296.9189" x="99.45" y="639.9351">CreateExecution(ctx, execution): int, error</text><ellipse cx="90.45" cy="652.8853" fill="#84BE84" rx="3" ry="3" style="stroke:#038048;stroke-width:1;"/><text fill="#000000" font-family="sans-serif" font-size="14" lengthAdjust="spacing" textLength="330.7227" x="99.45" y="656.232">GetExecution(ctx, id): AnalyzerExecution, error</text><ellipse cx="90.45" cy="669.1822" fill="#84BE84" rx="3" ry="3" style="stroke:#038048;stroke-width:1;"/><text fill="#000000" font-family="sans-serif" font-size="14" lengthAdjust="spacing" textLength="393.1074" x="99.45" y="672.5289">ListExecutions(ctx): []AnalyzerExecutionBriefView, error</text><ellipse cx="90.45" cy="685.4791" fill="#84BE84" rx="3" ry="3" style="stroke:#038048;stroke-width:1;"/><text fill="#000000" font-family="sans-serif" font-size="14" lengthAdjust="spacing" textLength="209.8633" x="99.45" y="688.8257">CreateRun(ctx, run): int, error</text><ellipse cx="90.45" cy="701.7759" fill="#84BE84" rx="3" ry="3" style="stroke:#038048;stroke-width:1;"/><text fill="#000000" font-family="sans-serif" font-size="14" lengthAdjust="spacing" textLength="239.4766" x="99.45" y="705.1226">GetRun(ctx, id): *FuzzerRun, error</text><ellipse cx="90.45" cy="718.0728" fill="#84BE84" rx="3" ry="3" style="stroke:#038048;stroke-width:1;"/><text fill="#000000" font-family="sans-serif" font-size="14" lengthAdjust="spacing" textLength="270.0059" x="99.45" y="721.4195">ListRuns(ctx, filter): []FuzzerRun, error</text><ellipse cx="90.45" cy="734.3697" fill="#84BE84" rx="3" ry="3" style="stroke:#038048;stroke-width:1;"/><text fill="#000000" font-family="sans-serif" font-size="14" lengthAdjust="spacing" textLength="294.4375" x="99.45" y="737.7164">AddTagToRun(ctx, runID, tagName): error</text><ellipse cx="90.45" cy="750.6666" fill="#84BE84" rx="3" ry="3" style="stroke:#038048;stroke-width:1;"/><text fill="#000000" font-family="sans-serif" font-size="14" lengthAdjust="spacing" textLength="269.0693" x="99.45" y="754.0132">GetRunTags(ctx, runID): []string, error</text><ellipse cx="90.45" cy="766.9634" fill="#84BE84" rx="3" ry="3" style="stroke:#038048;stroke-width:1;"/><text fill="#000000" font-family="sans-serif" font-size="14" lengthAdjust="spacing" textLength="237.3643" x="99.45" y="770.3101">CreateCrash(ctx, crash): int, error</text><ellipse cx="90.45" cy="783.2603" fill="#84BE84" rx="3" ry="3" style="stroke:#038048;stroke-width:1;"/><text fill="#000000" font-family="sans-serif" font-size="14" lengthAdjust="spacing" textLength="284.2451" x="99.45" y="786.607">CreateTestCase(ctx, testCase): int, error</text><ellipse cx="90.45" cy="799.5572" fill="#84BE84" rx="3" ry="3" style="stroke:#038048;stroke-width:1;"/><text fill="#000000" font-family="sans-serif" font-size="14" lengthAdjust="spacing" textLength="307.9521" x="99.45" y="802.9039">CreateFsSummary(ctx, summary): int, error</text><ellipse cx="90.45" cy="815.8541" fill="#84BE84" rx="3" ry="3" style="stroke:#038048;stroke-width:1;"/><text fill="#000000" font-family="sans-serif" font-size="14" lengthAdjust="spacing" textLength="290.6504" x="99.45" y="819.2007">CreateTestArtifact(ctx, artifact): int, error</text><ellipse cx="90.45" cy="832.1509" fill="#84BE84" rx="3" ry="3" style="stroke:#038048;stroke-width:1;"/><text fill="#000000" font-family="sans-serif" font-size="14" lengthAdjust="spacing" textLength="276.0488" x="99.45" y="835.4976">CreateFsArtifact(ctx, artifact): int, error</text></g><!--class CrudServiceImpl--><g class="entity" data-entity="CrudServiceImpl" data-source-line="61" data-uid="ent0007" id="entity_CrudServiceImpl"><rect fill="#F1F1F1" height="292.4531" rx="2.5" ry="2.5" style="stroke:#181818;stroke-width:0.5;" width="419.1074" x="79.45" y="902.8"/><ellipse cx="226.9661" cy="918.8" fill="#ADD1B2" rx="11" ry="11" style="stroke:#181818;stroke-width:1;"/><path d="M229.9349,924.4406 Q229.3567,924.7375 228.7161,924.8781 Q228.0755,925.0344 227.3724,925.0344 Q224.8724,925.0344 223.5442,923.3938 Q222.2317,921.7375 222.2317,918.6125 Q222.2317,915.4875 223.5442,913.8313 Q224.8724,912.175 227.3724,912.175 Q228.0755,912.175 228.7161,912.3313 Q229.3724,912.4875 229.9349,912.7844 L229.9349,915.5031 Q229.3099,914.925 228.7161,914.6594 Q228.1224,914.3781 227.4974,914.3781 Q226.1536,914.3781 225.4661,915.4563 Q224.7786,916.5188 224.7786,918.6125 Q224.7786,920.7063 225.4661,921.7844 Q226.1536,922.8469 227.4974,922.8469 Q228.1224,922.8469 228.7161,922.5813 Q229.3099,922.3 229.9349,921.7219 L229.9349,924.4406 Z " fill="#000000"/><text fill="#000000" font-family="sans-serif" font-size="14" lengthAdjust="spacing" textLength="115.5752" x="247.4661" y="923.6467">CrudServiceImpl</text><line style="stroke:#181818;stroke-width:0.5;" x1="80.45" x2="497.5574" y1="934.8" y2="934.8"/><rect fill="none" height="6" style="stroke:#C82930;stroke-width:1;" width="6" x="87.45" y="945.4484"/><text fill="#000000" font-family="sans-serif" font-size="14" lengthAdjust="spacing" textLength="116.0605" x="99.45" y="951.7951">repo: Repository</text><line style="stroke:#181818;stroke-width:0.5;" x1="80.45" x2="497.5574" y1="959.0969" y2="959.0969"/><ellipse cx="90.45" cy="972.7453" fill="#84BE84" rx="3" ry="3" style="stroke:#038048;stroke-width:1;"/><text fill="#000000" font-family="sans-serif" font-size="14" lengthAdjust="spacing" textLength="252.5127" x="99.45" y="976.092">NewCrudService(repo): CrudService</text><ellipse cx="90.45" cy="989.0422" fill="#84BE84" rx="3" ry="3" style="stroke:#038048;stroke-width:1;"/><text fill="#000000" font-family="sans-serif" font-size="14" lengthAdjust="spacing" textLength="296.9189" x="99.45" y="992.3889">CreateExecution(ctx, execution): int, error</text><ellipse cx="90.45" cy="1005.3391" fill="#84BE84" rx="3" ry="3" style="stroke:#038048;stroke-width:1;"/><text fill="#000000" font-family="sans-serif" font-size="14" lengthAdjust="spacing" textLength="330.7227" x="99.45" y="1008.6857">GetExecution(ctx, id): AnalyzerExecution, error</text><ellipse cx="90.45" cy="1021.6359" fill="#84BE84" rx="3" ry="3" style="stroke:#038048;stroke-width:1;"/><text fill="#000000" font-family="sans-serif" font-size="14" lengthAdjust="spacing" textLength="393.1074" x="99.45" y="1024.9826">ListExecutions(ctx): []AnalyzerExecutionBriefView, error</text><ellipse cx="90.45" cy="1037.9328" fill="#84BE84" rx="3" ry="3" style="stroke:#038048;stroke-width:1;"/><text fill="#000000" font-family="sans-serif" font-size="14" lengthAdjust="spacing" textLength="209.8633" x="99.45" y="1041.2795">CreateRun(ctx, run): int, error</text><ellipse cx="90.45" cy="1054.2297" fill="#84BE84" rx="3" ry="3" style="stroke:#038048;stroke-width:1;"/><text fill="#000000" font-family="sans-serif" font-size="14" lengthAdjust="spacing" textLength="239.4766" x="99.45" y="1057.5764">GetRun(ctx, id): *FuzzerRun, error</text><ellipse cx="90.45" cy="1070.5266" fill="#84BE84" rx="3" ry="3" style="stroke:#038048;stroke-width:1;"/><text fill="#000000" font-family="sans-serif" font-size="14" lengthAdjust="spacing" textLength="270.0059" x="99.45" y="1073.8732">ListRuns(ctx, filter): []FuzzerRun, error</text><ellipse cx="90.45" cy="1086.8234" fill="#84BE84" rx="3" ry="3" style="stroke:#038048;stroke-width:1;"/><text fill="#000000" font-family="sans-serif" font-size="14" lengthAdjust="spacing" textLength="294.4375" x="99.45" y="1090.1701">AddTagToRun(ctx, runID, tagName): error</text><ellipse cx="90.45" cy="1103.1203" fill="#84BE84" rx="3" ry="3" style="stroke:#038048;stroke-width:1;"/><text fill="#000000" font-family="sans-serif" font-size="14" lengthAdjust="spacing" textLength="269.0693" x="99.45" y="1106.467">GetRunTags(ctx, runID): []string, error</text><ellipse cx="90.45" cy="1119.4172" fill="#84BE84" rx="3" ry="3" style="stroke:#038048;stroke-width:1;"/><text fill="#000000" font-family="sans-serif" font-size="14" lengthAdjust="spacing" textLength="237.3643" x="99.45" y="1122.7639">CreateCrash(ctx, crash): int, error</text><ellipse cx="90.45" cy="1135.7141" fill="#84BE84" rx="3" ry="3" style="stroke:#038048;stroke-width:1;"/><text fill="#000000" font-family="sans-serif" font-size="14" lengthAdjust="spacing" textLength="284.2451" x="99.45" y="1139.0607">CreateTestCase(ctx, testCase): int, error</text><ellipse cx="90.45" cy="1152.0109" fill="#84BE84" rx="3" ry="3" style="stroke:#038048;stroke-width:1;"/><text fill="#000000" font-family="sans-serif" font-size="14" lengthAdjust="spacing" textLength="307.9521" x="99.45" y="1155.3576">CreateFsSummary(ctx, summary): int, error</text><ellipse cx="90.45" cy="1168.3078" fill="#84BE84" rx="3" ry="3" style="stroke:#038048;stroke-width:1;"/><text fill="#000000" font-family="sans-serif" font-size="14" lengthAdjust="spacing" textLength="290.6504" x="99.45" y="1171.6545">CreateTestArtifact(ctx, artifact): int, error</text><ellipse cx="90.45" cy="1184.6047" fill="#84BE84" rx="3" ry="3" style="stroke:#038048;stroke-width:1;"/><text fill="#000000" font-family="sans-serif" font-size="14" lengthAdjust="spacing" textLength="276.0488" x="99.45" y="1187.9514">CreateFsArtifact(ctx, artifact): int, error</text></g><!--class AnalysisService--><g class="entity" data-entity="AnalysisService" data-source-line="79" data-uid="ent0008" id="entity_AnalysisService"><rect fill="#F1F1F1" height="194.6719" rx="2.5" ry="2.5" style="stroke:#181818;stroke-width:0.5;" width="533.9922" x="22" y="41"/><ellipse cx="230.0347" cy="57" fill="#B4A7E5" rx="11" ry="11" style="stroke:#181818;stroke-width:1;"/><path d="M225.9565,52.7656 L225.9565,50.6094 L233.3472,50.6094 L233.3472,52.7656 L230.8784,52.7656 L230.8784,60.8438 L233.3472,60.8438 L233.3472,63 L225.9565,63 L225.9565,60.8438 L228.4253,60.8438 L228.4253,52.7656 L225.9565,52.7656 Z " fill="#000000"/><text fill="#000000" font-family="sans-serif" font-size="14" font-style="italic" lengthAdjust="spacing" textLength="109.4229" x="250.5347" y="61.8467">AnalysisService</text><line style="stroke:#181818;stroke-width:0.5;" x1="23" x2="554.9922" y1="73" y2="73"/><line style="stroke:#181818;stroke-width:0.5;" x1="23" x2="554.9922" y1="81" y2="81"/><ellipse cx="33" cy="94.6484" fill="#84BE84" rx="3" ry="3" style="stroke:#038048;stroke-width:1;"/><text fill="#000000" font-family="sans-serif" font-size="14" lengthAdjust="spacing" textLength="415.1533" x="42" y="97.9951">CompareTests(ctx, testId1, testId2): TestComparison, error</text><ellipse cx="33" cy="110.9453" fill="#84BE84" rx="3" ry="3" style="stroke:#038048;stroke-width:1;"/><text fill="#000000" font-family="sans-serif" font-size="14" lengthAdjust="spacing" textLength="465.6777" x="42" y="114.292">GenerateExecutionDiff(ctx, execId1, execId2): ExecutionDiff, error</text><ellipse cx="33" cy="127.2422" fill="#84BE84" rx="3" ry="3" style="stroke:#038048;stroke-width:1;"/><text fill="#000000" font-family="sans-serif" font-size="14" lengthAdjust="spacing" textLength="356.2891" x="42" y="130.5889">FindSimilarFailures(ctx, testId): []SimilarTest, error</text><ellipse cx="33" cy="143.5391" fill="#84BE84" rx="3" ry="3" style="stroke:#038048;stroke-width:1;"/><text fill="#000000" font-family="sans-serif" font-size="14" lengthAdjust="spacing" textLength="476.5127" x="42" y="146.8857">AnalyzeFileSystemBehavior(ctx, fsName): FsBehaviorAnalysis, error</text><ellipse cx="33" cy="159.8359" fill="#84BE84" rx="3" ry="3" style="stroke:#038048;stroke-width:1;"/><text fill="#000000" font-family="sans-serif" font-size="14" lengthAdjust="spacing" textLength="507.9922" x="42" y="163.1826">GenerateTimelineReport(ctx, startDate, endDate): TimelineReport, error</text><ellipse cx="33" cy="176.1328" fill="#84BE84" rx="3" ry="3" style="stroke:#038048;stroke-width:1;"/><text fill="#000000" font-family="sans-serif" font-size="14" lengthAdjust="spacing" textLength="325.8691" x="42" y="179.4795">GetFailurePatterns(ctx): []FailurePattern, error</text><ellipse cx="33" cy="192.4297" fill="#84BE84" rx="3" ry="3" style="stroke:#038048;stroke-width:1;"/><text fill="#000000" font-family="sans-serif" font-size="14" lengthAdjust="spacing" textLength="403.4365" x="42" y="195.7764">CompareRuns(ctx, runId1, runId2): RunComparison, error</text><ellipse cx="33" cy="208.7266" fill="#84BE84" rx="3" ry="3" style="stroke:#038048;stroke-width:1;"/><text fill="#000000" font-family="sans-serif" font-size="14" lengthAdjust="spacing" textLength="410.1152" x="42" y="212.0732">GenerateStatisticsOverview(ctx): StatisticsOverview, error</text><ellipse cx="33" cy="225.0234" fill="#84BE84" rx="3" ry="3" style="stroke:#038048;stroke-width:1;"/><text fill="#000000" font-family="sans-serif" font-size="14" lengthAdjust="spacing" textLength="341.6943" x="42" y="228.3701">FindFlakyTests(ctx, threshold): []FlakyTest, error</text></g><!--class AnalysisServiceImpl--><g class="entity" data-entity="AnalysisServiceImpl" data-source-line="91" data-uid="ent0009" id="entity_AnalysisServiceImpl"><rect fill="#F1F1F1" height="227.2656" rx="2.5" ry="2.5" style="stroke:#181818;stroke-width:0.5;" width="533.9922" x="22" y="295.67"/><ellipse cx="214.7632" cy="311.67" fill="#ADD1B2" rx="11" ry="11" style="stroke:#181818;stroke-width:1;"/><path d="M217.7319,317.3106 Q217.1538,317.6075 216.5132,317.7481 Q215.8726,317.9044 215.1694,317.9044 Q212.6694,317.9044 211.3413,316.2638 Q210.0288,314.6075 210.0288,311.4825 Q210.0288,308.3575 211.3413,306.7013 Q212.6694,305.045 215.1694,305.045 Q215.8726,305.045 216.5132,305.2013 Q217.1694,305.3575 217.7319,305.6544 L217.7319,308.3731 Q217.1069,307.795 216.5132,307.5294 Q215.9194,307.2481 215.2944,307.2481 Q213.9507,307.2481 213.2632,308.3263 Q212.5757,309.3888 212.5757,311.4825 Q212.5757,313.5763 213.2632,314.6544 Q213.9507,315.7169 215.2944,315.7169 Q215.9194,315.7169 216.5132,315.4513 Q217.1069,315.17 217.7319,314.5919 L217.7319,317.3106 Z " fill="#000000"/><text fill="#000000" font-family="sans-serif" font-size="14" lengthAdjust="spacing" textLength="139.9658" x="235.2632" y="316.5167">AnalysisServiceImpl</text><line style="stroke:#181818;stroke-width:0.5;" x1="23" x2="554.9922" y1="327.67" y2="327.67"/><rect fill="none" height="6" style="stroke:#C82930;stroke-width:1;" width="6" x="30" y="338.3184"/><text fill="#000000" font-family="sans-serif" font-size="14" lengthAdjust="spacing" textLength="177.1533" x="42" y="344.6651">crudService: CrudService</text><line style="stroke:#181818;stroke-width:0.5;" x1="23" x2="554.9922" y1="351.9669" y2="351.9669"/><ellipse cx="33" cy="365.6153" fill="#84BE84" rx="3" ry="3" style="stroke:#038048;stroke-width:1;"/><text fill="#000000" font-family="sans-serif" font-size="14" lengthAdjust="spacing" textLength="352.4268" x="42" y="368.962">NewAnalysisService(crudService): AnalysisService</text><ellipse cx="33" cy="381.9122" fill="#84BE84" rx="3" ry="3" style="stroke:#038048;stroke-width:1;"/><text fill="#000000" font-family="sans-serif" font-size="14" lengthAdjust="spacing" textLength="415.1533" x="42" y="385.2589">CompareTests(ctx, testId1, testId2): TestComparison, error</text><ellipse cx="33" cy="398.2091" fill="#84BE84" rx="3" ry="3" style="stroke:#038048;stroke-width:1;"/><text fill="#000000" font-family="sans-serif" font-size="14" lengthAdjust="spacing" textLength="465.6777" x="42" y="401.5557">GenerateExecutionDiff(ctx, execId1, execId2): ExecutionDiff, error</text><ellipse cx="33" cy="414.5059" fill="#84BE84" rx="3" ry="3" style="stroke:#038048;stroke-width:1;"/><text fill="#000000" font-family="sans-serif" font-size="14" lengthAdjust="spacing" textLength="356.2891" x="42" y="417.8526">FindSimilarFailures(ctx, testId): []SimilarTest, error</text><ellipse cx="33" cy="430.8028" fill="#84BE84" rx="3" ry="3" style="stroke:#038048;stroke-width:1;"/><text fill="#000000" font-family="sans-serif" font-size="14" lengthAdjust="spacing" textLength="476.5127" x="42" y="434.1495">AnalyzeFileSystemBehavior(ctx, fsName): FsBehaviorAnalysis, error</text><ellipse cx="33" cy="447.0997" fill="#84BE84" rx="3" ry="3" style="stroke:#038048;stroke-width:1;"/><text fill="#000000" font-family="sans-serif" font-size="14" lengthAdjust="spacing" textLength="507.9922" x="42" y="450.4464">GenerateTimelineReport(ctx, startDate, endDate): TimelineReport, error</text><ellipse cx="33" cy="463.3966" fill="#84BE84" rx="3" ry="3" style="stroke:#038048;stroke-width:1;"/><text fill="#000000" font-family="sans-serif" font-size="14" lengthAdjust="spacing" textLength="325.8691" x="42" y="466.7432">GetFailurePatterns(ctx): []FailurePattern, error</text><ellipse cx="33" cy="479.6934" fill="#84BE84" rx="3" ry="3" style="stroke:#038048;stroke-width:1;"/><text fill="#000000" font-family="sans-serif" font-size="14" lengthAdjust="spacing" textLength="403.4365" x="42" y="483.0401">CompareRuns(ctx, runId1, runId2): RunComparison, error</text><ellipse cx="33" cy="495.9903" fill="#84BE84" rx="3" ry="3" style="stroke:#038048;stroke-width:1;"/><text fill="#000000" font-family="sans-serif" font-size="14" lengthAdjust="spacing" textLength="410.1152" x="42" y="499.337">GenerateStatisticsOverview(ctx): StatisticsOverview, error</text><ellipse cx="33" cy="512.2872" fill="#84BE84" rx="3" ry="3" style="stroke:#038048;stroke-width:1;"/><text fill="#000000" font-family="sans-serif" font-size="14" lengthAdjust="spacing" textLength="341.6943" x="42" y="515.6339">FindFlakyTests(ctx, threshold): []FlakyTest, error</text></g><!--reverse link Repository to FuzzerRepository--><g class="link" data-entity-1="Repository" data-entity-2="FuzzerRepository" data-source-line="106" data-uid="lnk10" id="link_Repository_FuzzerRepository"><path codeLine="106" d="M289,1630.08 C289,1649.76 289,1651.79 289,1671.35" fill="none" id="Repository-backto-FuzzerRepository" style="stroke:#181818;stroke-width:1;stroke-dasharray:7,7;"/><polygon fill="none" points="289,1612.08,283,1630.08,295,1630.08,289,1612.08" style="stroke:#181818;stroke-width:1;"/></g><!--reverse link CrudService to CrudServiceImpl--><g class="link" data-entity-1="CrudService" data-entity-2="CrudServiceImpl" data-source-line="108" data-uid="lnk11" id="link_CrudService_CrudServiceImpl"><path codeLine="108" d="M289,861.06 C289,880.53 289,882.72 289,902.5" fill="none" id="CrudService-backto-CrudServiceImpl" style="stroke:#181818;stroke-width:1;stroke-dasharray:7,7;"/><polygon fill="none" points="289,843.06,283,861.06,295,861.06,289,843.06" style="stroke:#181818;stroke-width:1;"/></g><!--reverse link AnalysisService to AnalysisServiceImpl--><g class="link" data-entity-1="AnalysisService" data-entity-2="AnalysisServiceImpl" data-source-line="109" data-uid="lnk12" id="link_AnalysisService_AnalysisServiceImpl"><path codeLine="109" d="M289,254.06 C289,273.34 289,275.74 289,295.5" fill="none" id="AnalysisService-backto-AnalysisServiceImpl" style="stroke:#181818;stroke-width:1;stroke-dasharray:7,7;"/><polygon fill="none" points="289,236.06,283,254.06,295,254.06,289,236.06" style="stroke:#181818;stroke-width:1;"/></g><!--link CrudServiceImpl to Repository--><g class="link" data-entity-1="CrudServiceImpl" data-entity-2="Repository" data-source-line="111" data-uid="lnk13" id="link_CrudServiceImpl_Repository"><path codeLine="111" d="M289,1195.48 C289,1219.72 289,1239.05 289,1263.84" fill="none" id="CrudServiceImpl-to-Repository" style="stroke:#181818;stroke-width:1;"/><polygon fill="#181818" points="289,1269.84,293,1260.84,289,1264.84,285,1260.84,289,1269.84" style="stroke:#181818;stroke-width:1;"/></g><!--link AnalysisServiceImpl to CrudService--><g class="link" data-entity-1="AnalysisServiceImpl" data-entity-2="CrudService" data-source-line="112" data-uid="lnk14" id="link_AnalysisServiceImpl_CrudService"><path codeLine="112" d="M289,523.02 C289,542.43 289,556.74 289,576.54" fill="none" id="AnalysisServiceImpl-to-CrudService" style="stroke:#181818;stroke-width:1;"/><polygon fill="#181818" points="289,582.54,293,573.54,289,577.54,285,573.54,289,582.54" style="stroke:#181818;stroke-width:1;"/></g><!--SRC=[xLTDRzim3BtdL-YOTMs1xLWC0vfa7W8CxL0Nsw7OGRNfHAW_0abEucxxxwC-4ikolAPOYrroQMtnaQAezqXdHPC7kW32OLK99YlUa9yZGbWfWMSq0NBJDH3obiHq3PSbpPj7u9-saDIILUKuaTjJ0hlNDnSg1YvmNd7hzuK9sVCJoX7HTpzwfWbda7rZiEc6-GpogTtdAKRiWRfXOZmJtDJMbTSgPM-RlPMfU2TH_OZXSF4q01G6cR4SAwVFCmo_vdhpMxemJYKjG6s02rtiPPhYsctbfZcVdH995rV6fvy8EWW7h5CHahDo4KnxqkpJQACE9g_pdd8gbiObKOzU6kPi8EIK2h2HxLi86OcuBWhA6mCLvcKevYMN37af3PZQjt3SWx2c3D-PNCv0KfPxjJj1epM4oXTBAbi6xnQ2XOuqCo2TD3CguH2s_1xXdoIdGX1hzRLuHj9xp76rs9vFgxAq6rx1niUFqtk7mVlbLvL2pWg67Q3ACW7og8YZ8bv24QY9bHrP0lYQuOJgpgifhzFOiQZzfXnmW-UCAipGWxC3HeeQSFyms4oQdWv3gHqcHfNDSmRJQqhB72qWazxn379GB0FuGSdy9VwW60RtECp3QTiE6UV5AjztRVMrTK5wVHWRj-CnLYWCxYmT-Npay__XSzjWzUqB9dfDjYfMr8maqHvpdhxRFRp7mBeE6iX4rViCA86xl9wnB6kvhIEP1nMfW-e6YbYPnlZnaLCUuPYgENGIqfTgxIeVZpM6t3YR86w4X682Ixfc5RUq4vOxaTWPTWK9d-QM5P2p4fJOkQsqa5XhDVFGfKpLWofD1zZJY3t9Lohn8XmnTjUzUpPNqef6aLgLKVzNLKJJKzUXvZSgZoNYUgsk73PsxxwXVmrHJXyQbn9Bl8nbbPjBs5k3pTCZMgU19crF33L8RAIUzzZns3M-rdgay972BqXX9B7pK-t3h_FptW-uqSZzKDKGxsDXv3TQ3Gg8eXDAg-JixAFxSH4Iae8uRdy0]--></g></svg>